<svg xmlns="http://www.w3.org/2000/svg" version="1.1" xml:space="preserve" viewBox="0 0 256 256">
  <g stroke="none" stroke-width="0" stroke-dasharray="none" stroke-linecap="butt" stroke-linejoin="miter" stroke-miterlimit="10" fill="#ec0000" fill-rule="nonzero" opacity="1">
    <path d="M82.621 187.142c-3.597 0-7.19-1.371-9.936-4.117-5.488-5.485-5.488-14.381 0-19.866l90.47-90.471c5.483-5.485 14.385-5.485 19.868 0 5.487 5.488 5.487 14.384 0 19.87l-90.466 90.467a14.016 14.016 0 01-9.936 4.117z" opacity="1"/>
    <path d="M173.092 187.142a13.993 13.993 0 01-9.933-4.117L72.688 92.557c-5.488-5.488-5.488-14.384 0-19.87 5.488-5.484 14.381-5.484 19.87 0l90.467 90.472c5.488 5.485 5.488 14.381 0 19.866a14.01 14.01 0 01-9.933 4.117z" opacity="1"/>
    <path d="M127.857 254.307c-69.725 0-126.45-56.726-126.45-126.45 0-69.725 56.725-126.45 126.45-126.45 69.724 0 126.45 56.725 126.45 126.45 0 69.724-56.726 126.45-126.45 126.45zm0-224.8c-54.23 0-98.35 44.12-98.35 98.35s44.12 98.35 98.35 98.35 98.35-44.12 98.35-98.35-44.12-98.35-98.35-98.35z" opacity="1"/>
  </g>
</svg>
